<svg viewBox="0 0 391.5 448.51" xmlns="http://www.w3.org/2000/svg" xmlns:xlink="http://www.w3.org/1999/xlink" id="Layer_1" overflow="hidden"><defs></defs><line x1="372.22" y1="125.95" x2="372.22" y2="68.45" stroke="#FFFFFF" stroke-width="10" stroke-linecap="round" stroke-linejoin="round" fill="none"/><line x1="372.22" y1="139.95" x2="372.22" y2="140.16" stroke="#FFFFFF" stroke-width="10" stroke-linecap="round" stroke-linejoin="round" fill="none"/><path d="M169.15 130.05 21.08 67.53 169.15 5" stroke="#FFFFFF" stroke-width="10" stroke-linecap="round" stroke-linejoin="round" fill="none"/><path d="M224.11 130.05 372.18 67.53 224.11 5" stroke="#FFFFFF" stroke-width="10" stroke-linecap="round" stroke-linejoin="round" fill="none"/><g><path d="M98.93 332.62C98.93 335.77 98.21 337.97 96.76 339.22 95.32 340.47 92.69 341.09 88.88 341.09L74.11 341.09C67.22 341.09 62.28 339.83 59.29 337.3 56.3 334.77 54.81 330.98 54.81 325.93L54.81 323.76C54.81 318.25 56.43 314.31 59.68 311.95 62.93 309.59 68 308.41 74.89 308.41 78.83 308.41 81.91 308.72 84.14 309.35 86.37 309.97 88.01 310.65 89.06 311.37L89.06 308.42C89.06 306.78 88.94 305.35 88.72 304.14 88.49 302.93 87.93 301.91 87.05 301.09 86.16 300.27 84.88 299.65 83.21 299.22 81.54 298.79 79.25 298.58 76.37 298.58 73.49 298.58 70.68 298.6 67.56 298.63 64.44 298.66 61.77 298.71 59.54 298.78L61.41 290.22C63.25 290.16 65.51 290.11 68.2 290.07 70.89 290.04 73.61 290.02 76.37 290.02 84.31 290.02 90.05 291.42 93.6 294.2 97.14 296.99 98.92 301.11 98.92 306.55L98.92 332.64ZM64.48 325.83C64.48 328.13 65.17 329.85 66.55 331 67.93 332.15 70.45 332.72 74.13 332.72L89.09 332.72 89.09 323.66C89.09 322.41 88.96 321.33 88.7 320.41 88.44 319.49 87.91 318.75 87.12 318.2 86.33 317.64 85.18 317.23 83.67 316.97 82.16 316.71 80.16 316.58 77.67 316.58L75.41 316.58C73.24 316.58 71.45 316.7 70.04 316.92 68.63 317.15 67.51 317.54 66.69 318.1 65.87 318.66 65.29 319.4 64.97 320.31 64.64 321.23 64.48 322.38 64.48 323.76L64.48 325.83Z" fill="#FFFFFF"/><path d="M110.35 278.19 120.69 276.32 120.69 290.2 139.39 290.2 137.62 298.76 120.69 298.76 120.69 322.39C120.69 324.56 120.8 326.33 121.03 327.71 121.26 329.09 121.7 330.14 122.36 330.86 123.02 331.58 123.95 332.07 125.17 332.34 126.38 332.6 127.94 332.73 129.85 332.73L138.81 332.73 137.04 341.1 129.95 341.1C126.01 341.1 122.78 340.8 120.25 340.21 117.72 339.62 115.72 338.62 114.25 337.21 112.77 335.8 111.75 333.91 111.2 331.55 110.64 329.19 110.36 326.23 110.36 322.69L110.36 278.19Z" fill="#86CAC6"/><path d="M169.61 288.62C173.88 288.62 177.5 289 180.49 289.75 183.48 290.51 185.92 291.82 187.82 293.69 189.72 295.56 191.12 298.06 192 301.17 192.89 304.29 193.33 308.21 193.33 312.93L193.33 318.34C193.33 323.07 192.89 326.99 192 330.1 191.11 333.22 189.72 335.71 187.82 337.58 185.92 339.45 183.47 340.76 180.49 341.52 177.5 342.27 173.88 342.65 169.61 342.65 165.34 342.65 161.72 342.27 158.73 341.52 155.74 340.77 153.3 339.45 151.4 337.58 149.5 335.71 148.1 333.22 147.22 330.1 146.33 326.98 145.89 323.06 145.89 318.34L145.89 312.93C145.89 308.2 146.33 304.28 147.22 301.17 148.11 298.05 149.5 295.56 151.4 293.69 153.3 291.82 155.75 290.51 158.73 289.75 161.72 289 165.34 288.62 169.61 288.62ZM182.8 312.93C182.8 309.45 182.62 306.68 182.26 304.61 181.9 302.54 181.24 300.95 180.29 299.84 179.34 298.72 178.01 297.99 176.3 297.62 174.59 297.26 172.36 297.08 169.61 297.08 166.86 297.08 164.62 297.26 162.92 297.62 161.21 297.98 159.88 298.72 158.93 299.84 157.98 300.96 157.32 302.55 156.96 304.61 156.6 306.68 156.42 309.45 156.42 312.93L156.42 318.34C156.42 321.82 156.6 324.59 156.96 326.66 157.32 328.73 157.98 330.32 158.93 331.43 159.88 332.55 161.21 333.29 162.92 333.65 164.63 334.01 166.86 334.19 169.61 334.19 172.36 334.19 174.6 334.01 176.3 333.65 178.01 333.29 179.33 332.55 180.29 331.43 181.24 330.32 181.9 328.72 182.26 326.66 182.62 324.59 182.8 321.82 182.8 318.34L182.8 312.93Z" fill="#86CAC6"/><path d="M203.57 341.09 203.57 306.24C203.57 303.29 204.03 300.78 204.95 298.71 205.87 296.64 207.16 294.97 208.84 293.69 210.51 292.41 212.53 291.48 214.89 290.88 217.25 290.29 219.88 289.99 222.77 289.99L230.06 289.99C231.77 289.99 233.18 290.02 234.29 290.09L232.52 298.65 231.54 298.65C230.95 298.65 230.23 298.63 229.37 298.6 228.52 298.57 227.6 298.55 226.61 298.55L223.75 298.55C221.45 298.55 219.65 298.76 218.34 299.19 217.03 299.62 216.04 300.26 215.39 301.11 214.73 301.96 214.32 303.01 214.16 304.26 213.99 305.51 213.91 306.92 213.91 308.49L213.91 341.07 203.57 341.07Z" fill="#86CAC6"/><path d="M263.33 342.66C255.91 342.66 250.34 341.41 246.59 338.92 242.85 336.43 240.98 332.16 240.98 326.12L240.98 290.19 251.32 290.19 251.32 324.05C251.32 325.69 251.42 327.14 251.61 328.38 251.81 329.63 252.3 330.68 253.09 331.53 253.88 332.38 255.07 333.02 256.68 333.45 258.29 333.88 260.5 334.09 263.32 334.09 266.14 334.09 268.34 333.88 269.92 333.45 271.5 333.02 272.68 332.38 273.46 331.53 274.25 330.68 274.74 329.63 274.94 328.38 275.14 327.13 275.23 325.69 275.23 324.05L275.23 290.19 285.57 290.19 285.57 326.12C285.57 332.16 283.7 336.42 279.96 338.92 276.22 341.41 270.67 342.66 263.32 342.66Z" fill="#86CAC6"/><path d="M323.87 311.06C326.82 311.32 329.22 311.93 331.06 312.88 332.9 313.83 334.31 314.98 335.29 316.33 336.27 317.68 336.95 319.12 337.31 320.66 337.67 322.2 337.85 323.7 337.85 325.14L337.85 326.52C337.85 331.18 336.18 334.81 332.83 337.4 329.48 339.99 324.33 341.29 317.37 341.29 314.42 341.29 310.99 341.27 307.08 341.24 303.17 341.21 299.25 341.16 295.32 341.09L297.09 332.53C300.63 332.6 304.24 332.65 307.92 332.68 311.59 332.71 314.91 332.73 317.86 332.73 321.67 332.73 324.27 332.3 325.69 331.45 327.1 330.6 327.81 328.92 327.81 326.43 327.81 325.64 327.73 324.9 327.56 324.21 327.4 323.52 327.07 322.92 326.58 322.39 326.09 321.87 325.38 321.42 324.46 321.06 323.54 320.7 322.29 320.45 320.72 320.32L308.91 319.24C306.48 319.04 304.41 318.54 302.71 317.71 301 316.89 299.63 315.87 298.58 314.66 297.53 313.45 296.76 312.09 296.27 310.58 295.78 309.07 295.53 307.53 295.53 305.95L295.53 304.28C295.53 299.82 297.07 296.32 300.16 293.8 303.24 291.27 308.3 290.01 315.32 290.01L325.16 290.01C328.57 290.01 332.41 290.08 336.68 290.21L334.91 298.77C332.15 298.71 329.72 298.66 327.63 298.62 325.53 298.59 323.67 298.57 322.07 298.57L314.24 298.57C310.89 298.57 308.56 298.98 307.25 299.8 305.94 300.62 305.28 302.08 305.28 304.18 305.28 305.03 305.36 305.79 305.53 306.44 305.69 307.1 306.02 307.66 306.51 308.11 307 308.57 307.72 308.96 308.68 309.29 309.63 309.62 310.89 309.85 312.47 309.98L323.89 311.06Z" fill="#86CAC6"/><path d="M44.1 422.62C44.1 425.77 43.38 427.97 41.93 429.22 40.49 430.47 37.86 431.09 34.05 431.09L19.28 431.09C12.39 431.09 7.45 429.83 4.46 427.3 1.47 424.77-0.02 420.98-0.02 415.93L-0.02 413.76C-0.02 408.25 1.6 404.31 4.85 401.95 8.1 399.59 13.17 398.41 20.06 398.41 24 398.41 27.08 398.72 29.31 399.35 31.54 399.97 33.18 400.65 34.23 401.37L34.23 398.42C34.23 396.78 34.11 395.35 33.89 394.14 33.66 392.93 33.1 391.91 32.22 391.09 31.33 390.27 30.05 389.65 28.38 389.22 26.71 388.79 24.43 388.58 21.54 388.58 18.65 388.58 15.85 388.6 12.73 388.63 9.61 388.66 6.94 388.71 4.71 388.78L6.58 380.22C8.42 380.16 10.68 380.11 13.37 380.07 16.06 380.04 18.78 380.02 21.54 380.02 29.48 380.02 35.22 381.42 38.77 384.2 42.31 386.99 44.09 391.11 44.09 396.55L44.09 422.64ZM9.65 415.83C9.65 418.13 10.34 419.85 11.72 421 13.1 422.15 15.62 422.72 19.3 422.72L34.26 422.72 34.26 413.66C34.26 412.41 34.13 411.33 33.87 410.41 33.61 409.49 33.08 408.75 32.29 408.2 31.5 407.64 30.35 407.23 28.84 406.97 27.33 406.71 25.33 406.58 22.84 406.58L20.58 406.58C18.41 406.58 16.63 406.7 15.22 406.92 13.81 407.15 12.69 407.54 11.87 408.1 11.05 408.66 10.47 409.4 10.15 410.31 9.82 411.23 9.66 412.38 9.66 413.76L9.66 415.83Z" fill="#86CAC6"/><path d="M78.06 388.56C75.37 388.56 73.17 388.71 71.46 389 69.75 389.3 68.41 389.95 67.42 390.97 66.44 391.99 65.76 393.45 65.4 395.35 65.04 397.25 64.86 399.81 64.86 403.03L64.86 408.25C64.86 411.47 65.06 414.03 65.45 415.93 65.84 417.83 66.55 419.29 67.57 420.31 68.59 421.33 69.95 421.98 71.66 422.28 73.37 422.58 75.5 422.72 78.06 422.72 81.67 422.72 84.51 422.7 86.57 422.67 88.64 422.64 90.46 422.59 92.03 422.52L90.26 431.08C88.55 431.14 86.52 431.19 84.16 431.23 81.8 431.26 79.76 431.28 78.06 431.28 73.66 431.28 69.95 430.89 66.94 430.1 63.92 429.31 61.48 428 59.61 426.16 57.74 424.32 56.39 421.94 55.57 419.02 54.75 416.1 54.34 412.51 54.34 408.24L54.34 403.02C54.34 398.75 54.75 395.16 55.57 392.24 56.39 389.32 57.74 386.94 59.61 385.1 61.48 383.26 63.92 381.95 66.94 381.16 69.96 380.37 73.67 379.98 78.06 379.98 79.96 379.98 82.14 380 84.61 380.03 87.07 380.06 89.48 380.15 91.85 380.28L90.08 388.84C87.39 388.71 85.12 388.63 83.29 388.59 81.45 388.56 79.71 388.54 78.07 388.54Z" fill="#86CAC6"/><path d="M141.75 422.62C141.75 425.77 141.03 427.97 139.58 429.22 138.14 430.47 135.51 431.09 131.7 431.09L116.93 431.09C110.04 431.09 105.1 429.83 102.11 427.3 99.12 424.77 97.63 420.98 97.63 415.93L97.63 413.76C97.63 408.25 99.25 404.31 102.5 401.95 105.75 399.59 110.82 398.41 117.71 398.41 121.65 398.41 124.73 398.72 126.96 399.35 129.19 399.97 130.83 400.65 131.88 401.37L131.88 398.42C131.88 396.78 131.76 395.35 131.54 394.14 131.31 392.93 130.75 391.91 129.87 391.09 128.98 390.27 127.7 389.65 126.03 389.22 124.36 388.79 122.07 388.58 119.19 388.58 116.31 388.58 113.5 388.6 110.38 388.63 107.26 388.66 104.59 388.71 102.36 388.78L104.23 380.22C106.07 380.16 108.33 380.11 111.02 380.07 113.71 380.04 116.43 380.02 119.19 380.02 127.13 380.02 132.87 381.42 136.42 384.2 139.96 386.99 141.74 391.11 141.74 396.55L141.74 422.64ZM107.3 415.83C107.3 418.13 107.99 419.85 109.37 421 110.75 422.15 113.27 422.72 116.95 422.72L131.91 422.72 131.91 413.66C131.91 412.41 131.78 411.33 131.52 410.41 131.26 409.49 130.73 408.75 129.94 408.2 129.15 407.64 128 407.23 126.49 406.97 124.98 406.71 122.98 406.58 120.49 406.58L118.23 406.58C116.06 406.58 114.27 406.7 112.86 406.92 111.45 407.15 110.33 407.54 109.51 408.1 108.69 408.66 108.11 409.4 107.79 410.31 107.46 411.23 107.3 412.38 107.3 413.76L107.3 415.83Z" fill="#86CAC6"/><path d="M174.93 431.08C170.6 431.08 166.96 430.64 164 429.75 161.05 428.86 158.68 427.44 156.91 425.47 155.14 423.5 153.87 420.96 153.12 417.84 152.37 414.72 151.99 410.93 151.99 406.47L151.99 402.73C151.99 398.73 152.32 395.23 152.97 392.25 153.63 389.26 154.81 386.75 156.51 384.72 158.22 382.69 160.53 381.16 163.45 380.14 166.37 379.12 170.06 378.61 174.53 378.61 177.68 378.61 180.49 378.95 182.95 379.64 185.41 380.33 187.26 381.23 188.51 382.35L188.51 357.94 198.85 357.94 198.85 422.62C198.85 425.64 198.16 427.81 196.78 429.12 195.4 430.43 192.74 431.09 188.81 431.09L174.93 431.09ZM188.51 422.61 188.51 399.67C188.51 397.11 188.31 395.01 187.92 393.37 187.53 391.73 186.84 390.43 185.85 389.48 184.87 388.53 183.52 387.89 181.81 387.56 180.1 387.23 177.94 387.07 175.31 387.07 172.55 387.07 170.34 387.28 168.67 387.71 167 388.14 165.7 388.93 164.78 390.07 163.86 391.22 163.25 392.81 162.96 394.84 162.67 396.87 162.52 399.5 162.52 402.72L162.52 406.46C162.52 409.87 162.67 412.63 162.96 414.73 163.26 416.83 163.86 418.47 164.78 419.65 165.7 420.83 167.01 421.62 168.72 422.01 170.43 422.4 172.69 422.6 175.51 422.6L188.5 422.6Z" fill="#86CAC6"/><path d="M219.42 409.43C219.42 412.19 219.57 414.42 219.86 416.12 220.15 417.83 220.75 419.17 221.63 420.16 222.51 421.15 223.75 421.82 225.32 422.18 226.89 422.54 228.99 422.72 231.62 422.72L238.86 422.72C241.78 422.72 245.57 422.66 250.23 422.52L248.46 431.08C246.42 431.14 244.68 431.19 243.24 431.23 241.79 431.26 240.47 431.28 239.25 431.28L231.62 431.28C226.96 431.28 223.17 430.74 220.25 429.66 217.33 428.58 215.03 427.04 213.36 425.03 211.69 423.03 210.55 420.6 209.96 417.75 209.37 414.9 209.07 411.73 209.07 408.25L209.07 402.74C209.07 399 209.38 395.64 210 392.65 210.62 389.66 211.77 387.14 213.45 385.07 215.12 383 217.45 381.41 220.44 380.3 223.42 379.18 227.31 378.63 232.1 378.63 236.5 378.63 240.09 379.14 242.88 380.16 245.67 381.18 247.87 382.56 249.48 384.29 251.09 386.03 252.19 388.03 252.78 390.29 253.37 392.55 253.66 394.9 253.66 397.33L253.66 398.81C253.66 401.17 253.53 403.04 253.27 404.42 253.01 405.8 252.58 406.87 251.99 407.62 251.4 408.37 250.66 408.87 249.78 409.1 248.9 409.33 247.83 409.44 246.58 409.44L219.41 409.44ZM231.63 386.79C229.01 386.79 226.91 386.99 225.33 387.38 223.75 387.77 222.52 388.51 221.64 389.6 220.75 390.68 220.16 392.18 219.87 394.08 219.57 395.98 219.43 398.45 219.43 401.46L243.94 401.46 243.94 398.11C243.94 395.94 243.76 394.12 243.4 392.65 243.04 391.18 242.38 390.01 241.43 389.16 240.48 388.31 239.22 387.7 237.64 387.34 236.06 386.98 234.06 386.8 231.63 386.8Z" fill="#86CAC6"/><path d="M263.72 431.08 263.72 395.15C263.72 389.11 265.44 384.85 268.89 382.35 272.34 379.86 277.44 378.61 284.2 378.61 287.61 378.61 290.7 379.12 293.45 380.14 296.21 381.16 298.24 382.55 299.55 384.32 300.86 382.55 302.9 381.15 305.65 380.14 308.41 379.12 311.49 378.61 314.9 378.61 321.66 378.61 326.78 379.86 330.26 382.35 333.74 384.85 335.48 389.11 335.48 395.15L335.48 431.08 325.14 431.08 325.14 397.22C325.14 395.58 325.06 394.14 324.89 392.89 324.73 391.64 324.3 390.59 323.61 389.74 322.92 388.89 321.9 388.25 320.56 387.82 319.21 387.39 317.33 387.18 314.9 387.18 312.67 387.18 310.9 387.36 309.58 387.72 308.27 388.08 307.25 388.64 306.53 389.39 305.81 390.15 305.33 391.06 305.1 392.15 304.87 393.23 304.76 394.46 304.76 395.84L304.76 431.08 294.42 431.08 294.42 397.22C294.42 395.58 294.34 394.14 294.17 392.89 294.01 391.64 293.58 390.59 292.89 389.74 292.2 388.89 291.18 388.25 289.84 387.82 288.49 387.39 286.61 387.18 284.18 387.18 281.75 387.18 279.95 387.39 278.57 387.82 277.19 388.25 276.17 388.89 275.52 389.74 274.86 390.59 274.45 391.64 274.29 392.89 274.12 394.14 274.04 395.58 274.04 397.22L274.04 431.08 263.7 431.08Z" fill="#86CAC6"/><path d="M351.73 439.75C355.01 439.88 357.87 439.95 360.29 439.95L367.77 439.95C370.2 439.95 372.26 439.74 373.97 439.31 375.68 438.88 377.07 438.16 378.15 437.14 379.23 436.12 380 434.73 380.46 432.96 380.92 431.19 381.15 428.92 381.15 426.17L381.15 425.09C380.56 425.62 379.9 426.14 379.18 426.67 378.46 427.2 377.56 427.65 376.47 428.05 375.39 428.44 374.04 428.76 372.43 428.99 370.82 429.22 368.84 429.33 366.47 429.33 360.17 429.33 355.33 428.13 351.95 425.74 348.57 423.35 346.88 419.13 346.88 413.09L346.88 380.21 357.22 380.21 357.22 410.73C357.22 412.37 357.3 413.82 357.47 415.06 357.63 416.31 358.06 417.36 358.75 418.21 359.44 419.06 360.52 419.7 362 420.13 363.48 420.56 365.49 420.77 368.05 420.77 370.87 420.77 373.14 420.59 374.84 420.23 376.55 419.87 377.86 419.25 378.78 418.36 379.7 417.47 380.32 416.33 380.65 414.91 380.98 413.5 381.14 411.74 381.14 409.64L381.14 380.21 391.48 380.21 391.48 426.18C391.48 430.25 391.04 433.69 390.15 436.52 389.26 439.34 387.85 441.64 385.92 443.41 383.98 445.18 381.52 446.48 378.54 447.3 375.55 448.12 371.99 448.53 367.86 448.53L359.59 448.53C358.21 448.53 356.74 448.51 355.16 448.48 353.58 448.45 351.81 448.4 349.84 448.33L351.71 439.77Z" fill="#86CAC6"/></g><path d="M321.55 146.11 321.77 174.58C321.88 181.89 317.07 188.36 310.04 190.38L268.65 202.22C244.82 209.04 221.86 218.6 200.24 230.72L196.62 232.75 193 230.72C171.38 218.6 148.42 209.04 124.59 202.22L83.2 190.38C76.17 188.37 71.36 181.89 71.47 174.58L71.69 146.11" stroke="#FFFFFF" stroke-width="10" stroke-linecap="round" stroke-linejoin="round" fill="none"/></svg>