<svg viewBox="0 0 391.5 448.51" xmlns="http://www.w3.org/2000/svg" xmlns:xlink="http://www.w3.org/1999/xlink" id="Layer_1" overflow="hidden"><defs></defs><g><line x1="372.22" y1="125.95" x2="372.22" y2="68.45" stroke="#86CAC6" stroke-width="10" stroke-linecap="round" stroke-linejoin="round" fill="none"/><line x1="372.22" y1="139.95" x2="372.22" y2="140.16" stroke="#86CAC6" stroke-width="10" stroke-linecap="round" stroke-linejoin="round" fill="none"/><path d="M169.15 130.05 21.08 67.53 169.15 5" stroke="#86CAC6" stroke-width="10" stroke-linecap="round" stroke-linejoin="round" fill="none"/><path d="M224.11 130.05 372.19 67.53 224.11 5" stroke="#86CAC6" stroke-width="10" stroke-linecap="round" stroke-linejoin="round" fill="none"/><g><path d="M165.6 397.81C165.6 400.957 164.877 403.153 163.43 404.4 161.99 405.65 159.36 406.27 155.56 406.27L140.79 406.27C133.903 406.27 128.967 405.007 125.98 402.48 122.993 399.953 121.5 396.163 121.5 391.11L121.5 389C121.5 383.493 123.123 379.557 126.37 377.19 129.617 374.823 134.687 373.64 141.58 373.64 144.691 373.547 147.801 373.863 150.83 374.58 152.568 374.984 154.232 375.659 155.76 376.58L155.76 373.58C155.775 372.146 155.658 370.713 155.41 369.3 155.201 368.128 154.614 367.057 153.74 366.25 152.632 365.322 151.314 364.68 149.9 364.38 147.654 363.894 145.357 363.679 143.06 363.74 140.3 363.74 137.36 363.74 134.25 363.79 131.14 363.84 128.45 363.87 126.25 363.93L128.12 355.37C129.96 355.31 132.22 355.26 134.92 355.22 137.62 355.18 140.33 355.17 143.09 355.17 151.03 355.17 156.77 356.567 160.31 359.36 163.85 362.153 165.623 366.27 165.63 371.71ZM131.15 391C131.002 392.946 131.762 394.851 133.21 396.16 134.59 397.307 137.117 397.883 140.79 397.89L155.79 397.89 155.79 388.83C155.806 387.733 155.671 386.64 155.39 385.58 155.14 384.683 154.585 383.901 153.82 383.37 152.773 382.714 151.596 382.295 150.37 382.14 148.384 381.843 146.378 381.709 144.37 381.74L142.1 381.74C140.307 381.716 138.515 381.833 136.74 382.09 135.551 382.237 134.409 382.64 133.39 383.27 132.591 383.8 131.987 384.576 131.67 385.48 131.313 386.594 131.147 387.761 131.18 388.93Z" fill="#86CAC6" transform="translate(-66.67 -65.19)"/><path d="M177 343.37 187.33 341.5 187.33 355.38 206.04 355.38 204.27 363.94 187.35 363.94 187.35 387.57C187.324 389.35 187.441 391.129 187.7 392.89 187.832 394.028 188.282 395.107 189 396 189.754 396.774 190.734 397.289 191.8 397.47 193.342 397.768 194.91 397.902 196.48 397.87L205.48 397.87 203.71 406.23 196.62 406.23C193.364 406.297 190.111 406.002 186.92 405.35 184.686 404.911 182.612 403.874 180.92 402.35 179.366 400.805 178.302 398.836 177.86 396.69 177.255 393.777 176.976 390.805 177.03 387.83Z" fill="#004F5B" transform="translate(-66.67 -65.19)"/><path d="M236.28 353.81C239.939 353.741 243.593 354.121 247.16 354.94 249.915 355.564 252.449 356.926 254.49 358.88 256.516 360.963 257.957 363.543 258.67 366.36 259.645 370.201 260.093 374.158 260 378.12L260 383.53C260.093 387.496 259.645 391.455 258.67 395.3 257.957 398.117 256.516 400.697 254.49 402.78 252.444 404.726 249.912 406.087 247.16 406.72 239.985 408.227 232.575 408.227 225.4 406.72 222.647 406.089 220.115 404.728 218.07 402.78 216.041 400.697 214.596 398.118 213.88 395.3 212.91 391.454 212.462 387.495 212.55 383.53L212.55 378.12C212.462 374.158 212.909 370.202 213.88 366.36 214.596 363.542 216.041 360.963 218.07 358.88 220.11 356.925 222.644 355.562 225.4 354.94 228.967 354.12 232.621 353.741 236.28 353.81ZM249.47 378.12C249.519 375.337 249.338 372.554 248.93 369.8 248.702 368.06 248.011 366.413 246.93 365.03 245.888 363.857 244.477 363.074 242.93 362.81 238.496 362.09 233.974 362.09 229.54 362.81 227.993 363.074 226.583 363.857 225.54 365.03 224.459 366.413 223.768 368.06 223.54 369.8 223.132 372.554 222.951 375.337 223 378.12L223 383.53C222.951 386.313 223.132 389.096 223.54 391.85 223.77 393.593 224.461 395.242 225.54 396.63 226.589 397.793 227.997 398.572 229.54 398.84 233.974 399.56 238.496 399.56 242.93 398.84 244.473 398.572 245.881 397.793 246.93 396.63 248.009 395.242 248.7 393.593 248.93 391.85 249.338 389.096 249.519 386.313 249.47 383.53Z" fill="#004F5B" transform="translate(-66.67 -65.19)"/><path d="M270.24 406.27 270.24 371.43C270.168 368.851 270.638 366.286 271.62 363.9 272.467 361.928 273.806 360.206 275.51 358.9 277.312 357.557 279.371 356.6 281.56 356.09 284.141 355.473 286.787 355.174 289.44 355.2L296.72 355.2C298.43 355.2 299.84 355.2 300.95 355.3L299.18 363.87 298.18 363.87C297.59 363.87 296.86 363.87 296.01 363.82 295.16 363.77 294.24 363.77 293.26 363.77L290.4 363.77C288.575 363.708 286.75 363.923 284.99 364.41 283.817 364.728 282.77 365.398 281.99 366.33 281.311 367.254 280.886 368.34 280.76 369.48 280.591 370.884 280.511 372.296 280.52 373.71L280.52 406.29Z" fill="#004F5B" transform="translate(-66.67 -65.19)"/><path d="M330 407.85C322.587 407.85 317.01 406.603 313.27 404.11 309.53 401.617 307.66 397.35 307.66 391.31L307.66 355.38 318 355.38 318 389.24C317.986 390.692 318.086 392.143 318.3 393.58 318.464 394.753 318.976 395.851 319.77 396.73 320.767 397.694 322.014 398.359 323.37 398.65 325.549 399.133 327.779 399.348 330.01 399.29 332.228 399.35 334.445 399.135 336.61 398.65 337.945 398.351 339.171 397.686 340.15 396.73 340.947 395.852 341.463 394.754 341.63 393.58 341.835 392.143 341.932 390.692 341.92 389.24L341.92 355.38 352.26 355.38 352.26 391.31C352.26 397.35 350.39 401.617 346.65 404.11 342.91 406.603 337.36 407.85 330 407.85Z" fill="#004F5B" transform="translate(-66.67 -65.19)"/><path d="M390.53 376.25C393.021 376.39 395.462 377.008 397.72 378.07 400.881 379.574 403.183 382.439 403.97 385.85 404.322 387.318 404.503 388.821 404.51 390.33L404.51 391.71C404.51 396.377 402.843 400 399.51 402.58 396.177 405.16 391.007 406.457 384 406.47 381.04 406.47 377.61 406.453 373.71 406.42 369.81 406.387 365.907 406.337 362 406.27L363.78 397.71C367.32 397.777 370.93 397.827 374.61 397.86 378.29 397.893 381.603 397.91 384.55 397.91 388.35 397.91 390.957 397.483 392.37 396.63 393.78 395.78 394.49 394.1 394.49 391.63 394.497 390.883 394.413 390.137 394.24 389.41 394.073 388.726 393.728 388.098 393.24 387.59 392.639 386.997 391.916 386.543 391.12 386.26 389.913 385.844 388.655 385.595 387.38 385.52L375.57 384.44C373.427 384.318 371.324 383.799 369.37 382.91 367.793 382.192 366.383 381.153 365.23 379.86 364.192 378.67 363.406 377.282 362.92 375.78 362.431 374.285 362.181 372.723 362.18 371.15L362.18 369.48C362.18 365.02 363.723 361.523 366.81 358.99 369.897 356.457 374.96 355.187 382 355.18L391.84 355.18C395.253 355.18 399.093 355.247 403.36 355.38L401.59 363.94C398.83 363.88 396.4 363.833 394.3 363.8 392.2 363.8 390.35 363.75 388.74 363.75L380.91 363.75C377.577 363.75 375.243 364.16 373.91 364.98 372.59 365.8 371.91 367.26 371.91 369.36 371.9 370.12 371.98 370.879 372.15 371.62 372.313 372.265 372.661 372.849 373.15 373.3 373.781 373.838 374.516 374.24 375.31 374.48 376.541 374.862 377.813 375.094 379.1 375.17Z" fill="#004F5B" transform="translate(-66.67 -65.19)"/><path d="M110.77 487.8C110.77 490.947 110.047 493.147 108.6 494.4 107.16 495.65 104.53 496.27 100.73 496.27L86 496.27C79.1133 496.27 74.1767 495.007 71.19 492.48 68.2033 489.953 66.71 486.163 66.71 481.11L66.71 478.94C66.71 473.433 68.3333 469.497 71.58 467.13 74.8267 464.763 79.8967 463.583 86.79 463.59 89.9005 463.5 93.0097 463.812 96.04 464.52 97.7724 464.932 99.4317 465.606 100.96 466.52L100.96 463.52C100.978 462.083 100.865 460.647 100.62 459.23 100.411 458.058 99.8242 456.987 98.95 456.18 97.8421 455.252 96.5236 454.61 95.11 454.31 92.8597 453.829 90.5605 453.614 88.26 453.67 85.5133 453.67 82.5767 453.687 79.45 453.72 76.34 453.72 73.66 453.8 71.45 453.87L73.32 445.3C75.16 445.24 77.4233 445.193 80.11 445.16 82.8 445.16 85.53 445.11 88.28 445.11 96.22 445.11 101.963 446.503 105.51 449.29 109.057 452.077 110.83 456.197 110.83 461.65ZM76.31 481C76.1657 482.95 76.9295 484.858 78.38 486.17 79.76 487.32 82.28 487.89 85.96 487.89L100.96 487.89 100.96 478.83C100.978 477.737 100.847 476.647 100.57 475.59 100.32 474.693 99.7646 473.911 99 473.38 97.9575 472.723 96.783 472.303 95.56 472.15 93.5739 471.857 91.5673 471.726 89.56 471.76L87.24 471.76C85.4472 471.733 83.655 471.847 81.88 472.1 80.6921 472.25 79.5499 472.653 78.53 473.28 77.7285 473.811 77.1241 474.591 76.81 475.5 76.4487 476.61 76.2796 477.773 76.31 478.94Z" fill="#004F5B" transform="translate(-66.67 -65.19)"/><path d="M144.73 453.74C142.522 453.707 140.314 453.855 138.13 454.18 136.618 454.405 135.217 455.105 134.13 456.18 133.049 457.413 132.353 458.936 132.13 460.56 131.722 463.099 131.542 465.669 131.59 468.24L131.59 473.46C131.538 476.033 131.736 478.605 132.18 481.14 132.441 482.777 133.178 484.3 134.3 485.52 135.414 486.601 136.843 487.302 138.38 487.52 140.498 487.841 142.638 487.989 144.78 487.96 148.39 487.96 151.23 487.96 153.29 487.96 155.35 487.96 157.18 487.88 158.76 487.81L156.99 496.38C155.28 496.44 153.25 496.49 150.88 496.53 148.51 496.57 146.49 496.53 144.78 496.53 141.038 496.605 137.302 496.209 133.66 495.35 130.909 494.711 128.377 493.355 126.32 491.42 124.381 489.434 123.001 486.971 122.32 484.28 121.386 480.741 120.941 477.09 121 473.43L121 468.21C120.919 464.578 121.333 460.951 122.23 457.43 122.909 454.741 124.289 452.281 126.23 450.3 128.286 448.362 130.818 447.002 133.57 446.36 137.212 445.501 140.948 445.105 144.69 445.18 146.59 445.18 148.77 445.18 151.24 445.23 153.71 445.28 156.11 445.34 158.47 445.47L156.74 454C154.05 453.87 151.74 453.78 149.95 453.75 148.16 453.72 146.37 453.74 144.73 453.74Z" fill="#004F5B" transform="translate(-66.67 -65.19)"/><path d="M208.42 487.8C208.42 490.947 207.7 493.147 206.26 494.4 204.81 495.65 202.19 496.27 198.38 496.27L183.61 496.27C176.717 496.27 171.78 495.007 168.8 492.48 165.82 489.953 164.327 486.163 164.32 481.11L164.32 478.94C164.32 473.433 165.943 469.497 169.19 467.13 172.437 464.763 177.507 463.583 184.4 463.59 187.511 463.5 190.62 463.812 193.65 464.52 195.385 464.932 197.048 465.607 198.58 466.52L198.58 463.52C198.595 462.082 198.478 460.646 198.23 459.23 198.021 458.058 197.434 456.987 196.56 456.18 195.452 455.252 194.134 454.61 192.72 454.31 190.473 453.829 188.177 453.614 185.88 453.67 183.12 453.67 180.183 453.687 177.07 453.72 173.957 453.753 171.29 453.803 169.07 453.87L170.95 445.3C172.78 445.24 175.05 445.19 177.74 445.16 180.43 445.13 183.15 445.11 185.91 445.11 193.85 445.11 199.593 446.503 203.14 449.29 206.687 452.077 208.457 456.197 208.45 461.65ZM174 481C173.858 482.948 174.617 484.854 176.06 486.17 177.44 487.317 179.967 487.89 183.64 487.89L198.64 487.89 198.64 478.83C198.655 477.737 198.52 476.647 198.24 475.59 197.992 474.689 197.437 473.904 196.67 473.37 195.623 472.714 194.446 472.295 193.22 472.14 191.234 471.847 189.227 471.716 187.22 471.75L184.95 471.75C183.157 471.723 181.365 471.837 179.59 472.09 178.402 472.242 177.261 472.644 176.24 473.27 175.442 473.804 174.838 474.583 174.52 475.49 174.162 476.6 173.997 477.764 174.03 478.93Z" fill="#004F5B" transform="translate(-66.67 -65.19)"/><path d="M241.59 496.27C237.905 496.354 234.227 495.906 230.67 494.94 227.954 494.201 225.499 492.719 223.58 490.66 221.697 488.475 220.394 485.851 219.79 483.03 218.974 479.297 218.595 475.481 218.66 471.66L218.66 467.92C218.622 464.398 218.957 460.882 219.66 457.43 220.214 454.669 221.433 452.085 223.21 449.9 225.062 447.769 227.462 446.185 230.15 445.32 233.732 444.212 237.472 443.699 241.22 443.8 244.059 443.749 246.892 444.086 249.64 444.8 251.673 445.275 253.573 446.201 255.2 447.51L255.2 423.13 265.54 423.13 265.54 487.8C265.54 490.82 264.85 492.987 263.47 494.3 262.09 495.613 259.423 496.28 255.47 496.3ZM255.18 487.8 255.18 464.87C255.223 462.754 255.025 460.641 254.59 458.57 254.055 455.503 251.58 453.145 248.49 452.76 246.343 452.397 244.167 452.233 241.99 452.27 239.756 452.217 237.524 452.428 235.34 452.9 233.819 453.236 232.454 454.07 231.46 455.27 230.44 456.671 229.809 458.317 229.63 460.04 229.304 462.654 229.157 465.286 229.19 467.92L229.19 471.66C229.155 474.423 229.302 477.186 229.63 479.93 229.803 481.701 230.434 483.396 231.46 484.85 232.449 486.078 233.842 486.914 235.39 487.21 237.628 487.656 239.909 487.854 242.19 487.8Z" fill="#004F5B" transform="translate(-66.67 -65.19)"/><path d="M286.09 474.61C286.055 476.852 286.202 479.092 286.53 481.31 286.737 482.782 287.35 484.167 288.3 485.31 289.293 486.348 290.587 487.048 292 487.31 294.074 487.717 296.187 487.898 298.3 487.85L305.53 487.85C308.45 487.85 312.24 487.79 316.9 487.65L315.13 496.22 309.91 496.37C308.47 496.37 307.14 496.37 305.91 496.37L298.3 496.37C294.445 496.493 290.597 495.945 286.93 494.75 284.263 493.845 281.886 492.247 280.04 490.12 278.314 488.017 277.144 485.514 276.64 482.84 276.022 479.712 275.724 476.529 275.75 473.34L275.75 467.83C275.714 464.443 276.029 461.062 276.69 457.74 277.209 454.973 278.389 452.372 280.13 450.16 281.991 447.966 284.409 446.315 287.13 445.38 290.894 444.15 294.843 443.585 298.8 443.71 302.454 443.601 306.099 444.115 309.58 445.23 312.076 446.064 314.335 447.484 316.17 449.37 317.754 451.063 318.889 453.126 319.47 455.37 320.062 457.656 320.361 460.008 320.36 462.37L320.36 464C320.394 465.878 320.26 467.756 319.96 469.61 319.793 470.763 319.354 471.86 318.68 472.81 318.134 473.541 317.354 474.063 316.47 474.29 315.422 474.535 314.347 474.65 313.27 474.63ZM298.3 452C296.184 451.95 294.07 452.148 292 452.59 290.555 452.9 289.253 453.68 288.3 454.81 287.326 456.118 286.716 457.66 286.53 459.28 286.204 461.729 286.057 464.199 286.09 466.67L310.6 466.67 310.6 463.32C310.635 461.485 310.454 459.652 310.06 457.86 309.768 456.516 309.07 455.294 308.06 454.36 306.973 453.44 305.668 452.814 304.27 452.54 302.305 452.145 300.304 451.963 298.3 452Z" fill="#004F5B" transform="translate(-66.67 -65.19)"/><path d="M330.39 496.27 330.39 460.34C330.39 454.3 332.113 450.033 335.56 447.54 339.007 445.047 344.107 443.8 350.86 443.8 354.012 443.758 357.147 444.273 360.12 445.32 362.518 446.092 364.638 447.549 366.22 449.51 367.802 447.549 369.922 446.092 372.32 445.32 375.293 444.272 378.428 443.757 381.58 443.8 388.34 443.8 393.457 445.047 396.93 447.54 400.403 450.033 402.143 454.3 402.15 460.34L402.15 496.27 391.81 496.27 391.81 462.4C391.821 460.953 391.741 459.507 391.57 458.07 391.366 455.625 389.623 453.584 387.24 453 385.394 452.516 383.488 452.3 381.58 452.36 379.791 452.316 378.004 452.497 376.26 452.9 375.11 453.174 374.056 453.755 373.21 454.58 372.482 455.343 371.986 456.296 371.78 457.33 371.539 458.548 371.425 459.788 371.44 461.03L371.44 496.27 361.1 496.27 361.1 462.4C361.113 460.953 361.03 459.506 360.85 458.07 360.655 455.622 358.908 453.576 356.52 453 352.812 452.147 348.958 452.147 345.25 453 344.061 453.312 342.996 453.983 342.2 454.92 341.516 455.841 341.091 456.929 340.97 458.07 340.79 459.506 340.707 460.953 340.72 462.4L340.72 496.27Z" fill="#004F5B" transform="translate(-66.67 -65.19)"/><path d="M418.39 504.93C421.67 505.057 424.527 505.123 426.96 505.13L434.44 505.13C436.525 505.164 438.606 504.949 440.64 504.49 442.198 504.141 443.638 503.393 444.82 502.32 445.978 501.178 446.784 499.727 447.14 498.14 447.649 495.914 447.881 493.633 447.83 491.35L447.83 490.26C447.24 490.79 446.58 491.31 445.83 491.84 444.991 492.417 444.08 492.881 443.12 493.22 441.821 493.662 440.481 493.973 439.12 494.15 437.147 494.405 435.159 494.522 433.17 494.5 426.87 494.5 422.03 493.3 418.65 490.9 415.27 488.5 413.58 484.283 413.58 478.25L413.58 445.37 423.92 445.37 423.92 475.89C423.909 477.337 423.989 478.783 424.16 480.22 424.281 481.37 424.724 482.462 425.44 483.37 426.297 484.333 427.433 485.005 428.69 485.29 430.668 485.776 432.704 485.991 434.74 485.93 437.019 485.976 439.297 485.795 441.54 485.39 443 485.149 444.362 484.501 445.47 483.52 446.423 482.582 447.074 481.38 447.34 480.07 447.704 478.341 447.872 476.577 447.84 474.81L447.84 445.37 458.17 445.37 458.17 491.37C458.25 494.861 457.801 498.343 456.84 501.7 456.075 504.335 454.614 506.715 452.61 508.59 450.497 510.459 447.966 511.793 445.23 512.48 441.74 513.36 438.149 513.774 434.55 513.71L426.28 513.71C424.9 513.71 423.42 513.71 421.85 513.66 420.28 513.61 418.5 513.58 416.53 513.52Z" fill="#004F5B" transform="translate(-66.67 -65.19)"/></g><path d="M388.22 211.3 388.44 239.77C388.547 247.081 383.739 253.556 376.71 255.57L335.33 267.41C311.501 274.228 288.544 283.789 266.92 295.9L263.3 297.9 259.68 295.9C238.055 283.789 215.099 274.228 191.27 267.41L149.89 255.57C142.861 253.554 138.052 247.082 138.15 239.77L138.38 211.3" stroke="#86CAC6" stroke-width="10" stroke-linecap="round" stroke-linejoin="round" fill="none" transform="translate(-66.67 -65.19)"/></g></svg>