<svg viewBox="0 0 299.396 284.539" xmlns="http://www.w3.org/2000/svg" xmlns:xlink="http://www.w3.org/1999/xlink" id="Layer_1" overflow="hidden"><defs><linearGradient x1="339.497" y1="148.889" x2="120.565" y2="131.297" gradientUnits="userSpaceOnUse" id="linear-gradient"><stop offset="0" stop-color="#86CAC6"/><stop offset="0.076" stop-color="#92CFCC"/><stop offset="0.475" stop-color="#CDE9E7"/><stop offset="0.769" stop-color="#F1F9F8"/><stop offset="0.925" stop-color="#FFFFFF"/></linearGradient><linearGradient x1="203.492" y1="157.801" x2="280.491" y2="71.033" gradientUnits="userSpaceOnUse" id="linear-gradient-2"><stop offset="0.155" stop-color="#004F5B"/><stop offset="0.182" stop-color="#0B5762"/><stop offset="0.403" stop-color="#619299"/><stop offset="0.597" stop-color="#A5C1C5"/><stop offset="0.759" stop-color="#D6E2E4"/><stop offset="0.881" stop-color="#F4F7F8"/><stop offset="0.95" stop-color="#FFFFFF"/></linearGradient><linearGradient x1="57.617" y1="35.372" x2="330.905" y2="157.809" gradientUnits="userSpaceOnUse" id="linear-gradient-3"><stop offset="0" stop-color="#86CAC6"/><stop offset="0.087" stop-color="#7CC1BE"/><stop offset="0.232" stop-color="#63AAAA"/><stop offset="0.418" stop-color="#398388"/><stop offset="0.632" stop-color="#004F5B"/><stop offset="0.683" stop-color="#0A5863"/><stop offset="0.767" stop-color="#247077"/><stop offset="0.875" stop-color="#4E9699"/><stop offset="0.998" stop-color="#86CAC6"/></linearGradient><linearGradient x1="120.124" y1="153.321" x2="312.177" y2="153.321" gradientUnits="userSpaceOnUse" id="linear-gradient-4"><stop offset="0" stop-color="#86CAC6"/><stop offset="0.136" stop-color="#80C4C1"/><stop offset="0.322" stop-color="#6EB4B3"/><stop offset="0.537" stop-color="#529A9C"/><stop offset="0.771" stop-color="#2A767D"/><stop offset="0.981" stop-color="#004F5B"/></linearGradient></defs><path d="M55.892 321.241 59.71 327.359 63.473 321.241 65.639 321.241 60.66 329.089 60.66 334.77 58.665 334.77 58.665 329.089 53.631 321.241Z" fill="#004F5B" transform="translate(-53.568 -53.556)"/><path d="M71.168 324.643C71.8742 324.631 72.5794 324.704 73.268 324.861 73.7993 324.983 74.2881 325.245 74.683 325.621 75.0735 326.024 75.3517 326.521 75.49 327.065 75.6779 327.807 75.7644 328.571 75.747 329.336L75.747 330.381C75.7645 331.146 75.678 331.909 75.49 332.651 75.3519 333.195 75.0737 333.693 74.683 334.095 74.2883 334.471 73.7995 334.734 73.268 334.855 71.8831 335.146 70.4529 335.146 69.068 334.855 68.5364 334.734 68.0475 334.471 67.653 334.095 67.2621 333.693 66.9838 333.195 66.846 332.651 66.658 331.909 66.5715 331.146 66.589 330.381L66.589 329.336C66.5716 328.571 66.6581 327.807 66.846 327.065 66.9838 326.521 67.2621 326.023 67.653 325.621 68.0478 325.245 68.5366 324.983 69.068 324.861 69.7566 324.704 70.4618 324.63 71.168 324.643ZM73.714 329.336C73.7235 328.799 73.6884 328.262 73.609 327.73 73.5669 327.395 73.4357 327.077 73.229 326.809 73.0282 326.584 72.7572 326.433 72.46 326.381 71.6044 326.241 70.7316 326.241 69.876 326.381 69.5785 326.433 69.3072 326.584 69.106 326.809 68.9 327.077 68.7692 327.395 68.727 327.73 68.6471 328.261 68.612 328.799 68.622 329.336L68.622 330.381C68.612 330.918 68.6472 331.455 68.727 331.986 68.7692 332.321 68.9 332.639 69.106 332.907 69.3067 333.133 69.5782 333.284 69.876 333.335 70.7316 333.475 71.6044 333.475 72.46 333.335 72.7575 333.284 73.0287 333.133 73.229 332.907 73.4357 332.639 73.5669 332.321 73.609 331.986 73.6883 331.455 73.7234 330.918 73.714 330.381Z" fill="#004F5B" transform="translate(-53.568 -53.556)"/><path d="M84.106 335.073C82.9825 335.147 81.8613 334.897 80.876 334.352 80.1079 333.775 79.6972 332.838 79.793 331.882L79.793 324.946 81.788 324.946 81.788 331.482C81.7857 331.762 81.805 332.041 81.846 332.318 81.8768 332.545 81.9762 332.758 82.131 332.927 82.3224 333.113 82.5627 333.242 82.824 333.297 83.2445 333.391 83.6752 333.433 84.106 333.421 84.5342 333.433 84.9622 333.392 85.38 333.297 85.6379 333.24 85.8745 333.112 86.063 332.927 86.2177 332.758 86.3174 332.545 86.349 332.318 86.3892 332.041 86.408 331.762 86.405 331.482L86.405 324.946 88.405 324.946 88.405 331.882C88.5008 332.838 88.0901 333.775 87.322 334.352 86.3418 334.897 85.2251 335.147 84.106 335.073Z" fill="#004F5B" transform="translate(-53.568 -53.556)"/><path d="M92.675 334.77 92.675 328.044C92.6614 327.546 92.752 327.051 92.941 326.59 93.1048 326.209 93.3629 325.875 93.691 325.621 94.0395 325.362 94.4373 325.178 94.86 325.079 95.3579 324.961 95.8683 324.903 96.38 324.908L97.786 324.908C98.115 324.908 98.386 324.915 98.603 324.928L98.262 326.58 98.071 326.58C97.957 326.58 97.817 326.58 97.653 326.571 97.489 326.562 97.311 326.561 97.121 326.561L96.57 326.561C96.2174 326.55 95.8651 326.592 95.525 326.685 95.3016 326.748 95.1027 326.877 94.955 327.056 94.823 327.233 94.7411 327.443 94.718 327.663 94.6837 327.934 94.6677 328.207 94.67 328.48L94.67 334.77Z" fill="#004F5B" transform="translate(-53.568 -53.556)"/><path d="M110.725 328.69C110.712 329.424 110.763 330.158 110.877 330.884 110.941 331.365 111.131 331.82 111.428 332.204 111.712 332.533 112.095 332.76 112.52 332.851 113.104 332.978 113.7 333.035 114.297 333.022L115.836 333.022C116.38 333.022 117.051 333.009 117.85 332.983L117.488 334.77C116.805 334.795 116.172 334.808 115.588 334.808L114.3 334.808C113.38 334.83 112.461 334.718 111.573 334.475 110.905 334.29 110.3 333.926 109.825 333.421 109.359 332.881 109.041 332.23 108.903 331.53 108.711 330.596 108.622 329.644 108.638 328.69L108.638 327.3C108.618 326.319 108.717 325.34 108.932 324.383 109.087 323.684 109.417 323.037 109.892 322.502 110.365 322.009 110.967 321.66 111.63 321.495 112.496 321.279 113.387 321.178 114.28 321.195L115.78 321.195C116.325 321.195 116.977 321.208 117.737 321.233L117.377 323.019C117.187 323.019 116.959 323.016 116.692 323.01L115.866 322.991C115.581 322.985 115.299 322.981 115.021 322.981L114.241 322.981C113.642 322.969 113.043 323.02 112.455 323.134 112.038 323.213 111.66 323.43 111.382 323.751 111.093 324.133 110.912 324.586 110.859 325.062 110.76 325.802 110.716 326.548 110.727 327.295Z" fill="#004F5B" transform="translate(-53.568 -53.556)"/><path d="M125.754 324.643C126.46 324.63 127.165 324.704 127.854 324.861 128.386 324.983 128.875 325.245 129.27 325.621 129.66 326.024 129.939 326.521 130.077 327.065 130.265 327.807 130.351 328.571 130.334 329.336L130.334 330.381C130.351 331.146 130.265 331.909 130.077 332.651 129.939 333.195 129.661 333.693 129.27 334.095 128.875 334.471 128.386 334.734 127.854 334.855 126.469 335.146 125.039 335.146 123.654 334.855 123.122 334.734 122.634 334.471 122.239 334.095 121.848 333.693 121.569 333.195 121.432 332.651 121.244 331.909 121.158 331.146 121.175 330.381L121.175 329.336C121.158 328.571 121.244 327.807 121.432 327.065 121.569 326.521 121.848 326.023 122.239 325.621 122.634 325.245 123.123 324.983 123.654 324.861 124.343 324.704 125.048 324.63 125.754 324.643ZM128.3 329.336C128.309 328.799 128.274 328.262 128.195 327.73 128.153 327.395 128.022 327.077 127.815 326.809 127.614 326.584 127.343 326.433 127.046 326.381 126.19 326.241 125.318 326.241 124.462 326.381 124.165 326.433 123.893 326.584 123.692 326.809 123.486 327.077 123.355 327.395 123.312 327.73 123.234 328.262 123.201 328.799 123.212 329.336L123.212 330.381C123.201 330.918 123.234 331.455 123.312 331.986 123.355 332.321 123.486 332.639 123.692 332.907 123.893 333.133 124.164 333.284 124.462 333.335 125.318 333.475 126.19 333.475 127.046 333.335 127.343 333.284 127.615 333.133 127.815 332.907 128.022 332.639 128.153 332.321 128.195 331.986 128.274 331.455 128.309 330.918 128.3 330.381Z" fill="#004F5B" transform="translate(-53.568 -53.556)"/><path d="M134.379 334.77 134.379 327.835C134.283 326.897 134.657 325.971 135.379 325.364 136.265 324.824 137.297 324.572 138.333 324.643 138.941 324.636 139.546 324.737 140.119 324.943 140.582 325.09 140.992 325.371 141.297 325.749 141.603 325.371 142.013 325.09 142.476 324.943 144.051 324.433 145.766 324.587 147.226 325.369 147.952 325.974 148.329 326.9 148.232 327.84L148.232 334.775 146.237 334.775 146.237 328.238C146.24 327.959 146.224 327.679 146.189 327.402 146.166 327.18 146.08 326.969 145.942 326.794 145.787 326.615 145.582 326.487 145.354 326.424 144.998 326.33 144.63 326.289 144.262 326.301 143.917 326.29 143.572 326.324 143.235 326.401 143.013 326.453 142.809 326.565 142.646 326.724 142.506 326.872 142.41 327.056 142.371 327.256 142.324 327.491 142.302 327.73 142.305 327.969L142.305 334.769 140.305 334.769 140.305 328.232C140.307 327.953 140.291 327.673 140.257 327.396 140.218 326.924 139.881 326.53 139.421 326.418 138.705 326.254 137.961 326.254 137.245 326.418 137.015 326.478 136.809 326.607 136.656 326.788 136.524 326.966 136.442 327.176 136.419 327.396 136.385 327.673 136.369 327.953 136.371 328.232L136.371 334.769Z" fill="#004F5B" transform="translate(-53.568 -53.556)"/><path d="M157.046 324.643C157.743 324.631 158.438 324.704 159.117 324.861 159.646 324.983 160.13 325.25 160.517 325.631 160.903 326.045 161.175 326.552 161.306 327.103 161.487 327.865 161.57 328.648 161.553 329.431L161.553 330.285C161.563 331.009 161.496 331.732 161.353 332.442 161.248 332.987 161.007 333.497 160.653 333.924 160.282 334.333 159.806 334.632 159.276 334.788 158.548 334.998 157.792 335.094 157.034 335.073 156.522 335.086 156.011 335.012 155.524 334.855 155.157 334.736 154.817 334.546 154.524 334.295L154.524 338.095 152.51 338.095 152.51 329.336C152.493 328.577 152.58 327.82 152.767 327.084 152.905 326.54 153.183 326.042 153.574 325.64 153.967 325.264 154.453 324.999 154.981 324.87 155.657 324.707 156.351 324.63 157.046 324.643ZM157.027 333.443C157.458 333.452 157.888 333.414 158.31 333.328 158.608 333.268 158.876 333.107 159.069 332.872 159.274 332.591 159.399 332.26 159.431 331.913 159.495 331.374 159.524 330.831 159.517 330.288L159.517 329.434C159.524 328.878 159.491 328.322 159.417 327.771 159.38 327.427 159.253 327.099 159.047 326.821 158.851 326.593 158.583 326.438 158.287 326.384 157.454 326.244 156.602 326.244 155.769 326.384 155.47 326.438 155.196 326.588 154.99 326.812 154.778 327.078 154.643 327.396 154.6 327.733 154.523 328.265 154.489 328.802 154.5 329.339L154.5 330.688C154.491 331.147 154.529 331.605 154.614 332.056 154.669 332.368 154.808 332.66 155.014 332.901 155.222 333.121 155.494 333.27 155.792 333.328 156.198 333.411 156.612 333.449 157.027 333.44Z" fill="#004F5B" transform="translate(-53.568 -53.556)"/><path d="M165.6 320.652 167.6 320.652 167.6 334.77 165.6 334.77Z" fill="#004F5B" transform="translate(-53.568 -53.556)"/><path d="M173.633 330.59C173.626 331.022 173.654 331.454 173.718 331.882 173.756 332.168 173.875 332.438 174.06 332.66 174.251 332.861 174.5 332.998 174.772 333.05 175.173 333.127 175.58 333.161 175.988 333.15L177.388 333.15C177.951 333.15 178.685 333.137 179.588 333.112L179.245 334.766C178.853 334.778 178.517 334.787 178.238 334.794 177.96 334.801 177.703 334.804 177.469 334.804L175.996 334.804C175.252 334.827 174.51 334.721 173.802 334.49 173.288 334.315 172.829 334.007 172.472 333.597 172.14 333.19 171.915 332.707 171.817 332.191 171.697 331.587 171.64 330.973 171.646 330.357L171.646 329.3C171.639 328.646 171.699 327.993 171.826 327.352 171.927 326.818 172.155 326.316 172.491 325.889 172.849 325.466 173.315 325.148 173.84 324.968 174.566 324.729 175.328 324.62 176.092 324.645 176.797 324.625 177.501 324.726 178.172 324.945 178.654 325.106 179.091 325.38 179.445 325.745 179.751 326.072 179.97 326.47 180.081 326.904 180.196 327.348 180.254 327.804 180.253 328.263L180.253 328.547C180.26 328.91 180.234 329.272 180.177 329.63 180.144 329.853 180.06 330.064 179.93 330.248 179.823 330.388 179.673 330.489 179.502 330.533 179.3 330.581 179.093 330.603 178.885 330.6ZM175.988 326.22C175.58 326.21 175.171 326.248 174.772 326.334 174.494 326.394 174.244 326.544 174.06 326.761 173.871 327.014 173.753 327.312 173.718 327.626 173.654 328.098 173.626 328.575 173.633 329.051L178.363 329.051 178.363 328.4C178.371 328.046 178.338 327.692 178.263 327.346 178.208 327.088 178.076 326.853 177.883 326.672 177.673 326.494 177.421 326.373 177.151 326.32 176.768 326.244 176.378 326.211 175.988 326.22Z" fill="#004F5B" transform="translate(-53.568 -53.556)"/><path d="M184.253 322.629 186.253 322.268 186.253 324.946 189.863 324.946 189.522 326.6 186.253 326.6 186.253 331.159C186.248 331.502 186.27 331.845 186.319 332.185 186.345 332.408 186.434 332.62 186.576 332.794 186.722 332.944 186.912 333.043 187.118 333.078 187.415 333.134 187.716 333.16 188.018 333.154L189.746 333.154 189.404 334.77 188.036 334.77C187.408 334.783 186.78 334.725 186.165 334.599 185.734 334.513 185.333 334.313 185.006 334.019 184.706 333.721 184.501 333.341 184.417 332.927 184.298 332.365 184.244 331.791 184.255 331.217Z" fill="#004F5B" transform="translate(-53.568 -53.556)"/><path d="M195.179 330.59C195.172 331.022 195.2 331.454 195.264 331.882 195.302 332.169 195.42 332.438 195.606 332.66 195.797 332.861 196.046 332.998 196.318 333.05 196.719 333.127 197.126 333.161 197.534 333.15L198.934 333.15C199.497 333.15 200.228 333.137 201.129 333.112L200.786 334.766C200.394 334.778 200.058 334.787 199.779 334.794 199.501 334.801 199.244 334.804 199.01 334.804L197.537 334.804C196.793 334.827 196.051 334.721 195.343 334.49 194.829 334.315 194.37 334.007 194.013 333.597 193.681 333.19 193.455 332.707 193.357 332.191 193.238 331.587 193.181 330.973 193.187 330.357L193.187 329.3C193.18 328.646 193.24 327.993 193.367 327.352 193.468 326.818 193.696 326.316 194.032 325.889 194.39 325.466 194.856 325.147 195.381 324.968 196.107 324.729 196.869 324.62 197.633 324.645 198.338 324.625 199.042 324.726 199.713 324.945 200.195 325.106 200.632 325.38 200.986 325.745 201.292 326.072 201.511 326.47 201.622 326.904 201.737 327.348 201.795 327.804 201.794 328.263L201.794 328.547C201.801 328.91 201.775 329.272 201.718 329.63 201.685 329.853 201.601 330.064 201.471 330.248 201.364 330.388 201.214 330.489 201.043 330.533 200.841 330.581 200.634 330.603 200.426 330.6ZM197.534 326.22C197.126 326.21 196.717 326.248 196.318 326.334 196.04 326.394 195.79 326.544 195.606 326.761 195.417 327.014 195.299 327.312 195.264 327.626 195.2 328.098 195.172 328.575 195.179 329.051L199.909 329.051 199.909 328.4C199.917 328.046 199.884 327.692 199.809 327.346 199.754 327.088 199.622 326.853 199.429 326.672 199.219 326.494 198.967 326.373 198.697 326.32 198.314 326.244 197.924 326.211 197.534 326.22Z" fill="#004F5B" transform="translate(-53.568 -53.556)"/><path d="M212.887 321.241 217.787 321.241C218.739 321.216 219.689 321.345 220.6 321.621 221.286 321.836 221.905 322.226 222.395 322.752 222.862 323.287 223.189 323.93 223.345 324.623 223.54 325.476 223.632 326.349 223.62 327.223L223.62 328.762C223.633 329.644 223.54 330.524 223.345 331.384 223.189 332.077 222.863 332.72 222.395 333.255 221.905 333.782 221.286 334.171 220.6 334.386 219.689 334.662 218.739 334.791 217.787 334.766L212.887 334.766ZM214.887 332.983 217.793 332.983C218.38 332.993 218.967 332.936 219.541 332.812 219.984 332.72 220.388 332.495 220.7 332.167 221.023 331.786 221.242 331.328 221.337 330.837 221.485 330.113 221.552 329.376 221.537 328.637L221.537 327.363C221.553 326.621 221.486 325.879 221.337 325.151 221.243 324.666 221.023 324.213 220.7 323.839 220.386 323.515 219.982 323.293 219.541 323.202 218.967 323.079 218.38 323.022 217.793 323.031L214.887 323.031Z" fill="#004F5B" transform="translate(-53.568 -53.556)"/><path d="M235.915 333.136C235.966 333.601 235.813 334.065 235.496 334.408 235.045 334.696 234.51 334.824 233.977 334.77L231.127 334.77C230.118 334.86 229.109 334.601 228.267 334.038 227.659 333.477 227.34 332.669 227.402 331.844L227.402 331.426C227.318 330.557 227.67 329.703 228.343 329.146 229.228 328.623 230.253 328.385 231.278 328.462 231.879 328.444 232.479 328.505 233.064 328.642 233.399 328.723 233.72 328.854 234.015 329.031L234.015 328.462C234.018 328.185 233.996 327.908 233.948 327.635 233.908 327.409 233.794 327.202 233.625 327.046 233.411 326.867 233.157 326.743 232.884 326.685 232.45 326.591 232.007 326.55 231.563 326.561 231.03 326.561 230.463 326.564 229.863 326.571 229.263 326.578 228.747 326.587 228.314 326.6L228.676 324.946C229.03 324.934 229.467 324.925 229.986 324.918 230.505 324.911 231.031 324.908 231.563 324.908 232.73 324.811 233.897 325.094 234.889 325.716 235.594 326.3 235.975 327.187 235.915 328.101ZM229.265 331.824C229.236 332.201 229.384 332.571 229.665 332.824 230.104 333.091 230.617 333.207 231.128 333.156L234.016 333.156 234.016 331.408C234.019 331.196 233.994 330.985 233.939 330.781 233.891 330.608 233.785 330.457 233.639 330.354 233.437 330.228 233.21 330.147 232.974 330.116 232.59 330.06 232.202 330.034 231.814 330.04L231.378 330.04C231.031 330.035 230.685 330.057 230.342 330.107 230.113 330.136 229.893 330.214 229.696 330.335 229.541 330.437 229.424 330.588 229.363 330.763 229.295 330.978 229.263 331.203 229.269 331.428Z" fill="#004F5B" transform="translate(-53.568 -53.556)"/><path d="M240.188 322.629 242.188 322.268 242.188 324.946 245.798 324.946 245.456 326.6 242.188 326.6 242.188 331.159C242.183 331.502 242.205 331.845 242.254 332.185 242.28 332.408 242.369 332.62 242.511 332.794 242.657 332.944 242.847 333.043 243.053 333.078 243.35 333.134 243.651 333.16 243.953 333.154L245.682 333.154 245.34 334.77 243.97 334.77C243.342 334.783 242.714 334.725 242.099 334.599 241.667 334.513 241.267 334.313 240.939 334.019 240.64 333.721 240.435 333.341 240.351 332.927 240.232 332.365 240.177 331.791 240.188 331.217Z" fill="#004F5B" transform="translate(-53.568 -53.556)"/><path d="M257.518 333.136C257.569 333.601 257.416 334.065 257.099 334.408 256.648 334.696 256.112 334.824 255.579 334.77L252.729 334.77C251.72 334.86 250.711 334.601 249.869 334.038 249.262 333.477 248.944 332.669 249.005 331.844L249.005 331.426C248.92 330.557 249.272 329.703 249.945 329.146 250.831 328.623 251.855 328.385 252.881 328.462 253.482 328.445 254.082 328.505 254.667 328.642 255.002 328.723 255.322 328.854 255.617 329.031L255.617 328.462C255.62 328.185 255.598 327.908 255.551 327.635 255.511 327.408 255.397 327.201 255.227 327.046 255.014 326.866 254.759 326.742 254.486 326.685 254.053 326.591 253.609 326.55 253.166 326.561 252.633 326.561 252.066 326.564 251.466 326.571 250.866 326.578 250.35 326.587 249.917 326.6L250.278 324.946C250.633 324.934 251.069 324.925 251.589 324.918 252.109 324.911 252.634 324.908 253.166 324.908 254.333 324.811 255.499 325.094 256.491 325.716 257.196 326.3 257.578 327.187 257.518 328.101ZM250.867 331.824C250.838 332.201 250.986 332.571 251.267 332.824 251.705 333.091 252.219 333.208 252.729 333.156L255.617 333.156 255.617 331.408C255.621 331.196 255.595 330.985 255.541 330.781 255.493 330.608 255.387 330.457 255.241 330.354 255.039 330.228 254.812 330.146 254.576 330.116 254.192 330.06 253.805 330.034 253.417 330.04L252.981 330.04C252.634 330.035 252.287 330.057 251.944 330.107 251.715 330.136 251.495 330.214 251.299 330.335 251.144 330.437 251.027 330.588 250.966 330.763 250.897 330.978 250.865 331.203 250.871 331.428Z" fill="#004F5B" transform="translate(-53.568 -53.556)"/><path d="M274.674 327.227C275.19 327.306 275.694 327.449 276.174 327.654 276.549 327.816 276.883 328.059 277.152 328.366 277.405 328.67 277.587 329.027 277.684 329.411 277.799 329.877 277.854 330.357 277.846 330.837L277.846 331.159C277.857 331.703 277.773 332.244 277.599 332.759 277.436 333.212 277.146 333.608 276.763 333.899 276.298 334.235 275.767 334.468 275.205 334.582 274.412 334.749 273.602 334.826 272.792 334.811L271.072 334.811C270.318 334.811 269.351 334.798 268.172 334.773L268.514 332.986C269.02 332.999 269.466 333.008 269.853 333.015 270.239 333.022 270.598 333.025 270.927 333.025L272.789 333.025C273.3 333.032 273.811 333.003 274.318 332.938 274.649 332.905 274.97 332.803 275.259 332.638 275.478 332.502 275.643 332.294 275.724 332.049 275.814 331.744 275.856 331.427 275.848 331.109 275.852 330.829 275.829 330.549 275.781 330.273 275.744 330.06 275.652 329.861 275.515 329.694 275.358 329.517 275.158 329.383 274.935 329.304 274.609 329.182 274.272 329.093 273.929 329.037L271.364 328.619C270.823 328.545 270.295 328.395 269.796 328.173 269.424 328.006 269.093 327.76 268.827 327.451 268.589 327.158 268.423 326.814 268.343 326.445 268.249 326.011 268.205 325.567 268.21 325.123L268.21 324.763C268.202 324.26 268.289 323.76 268.467 323.29 268.641 322.849 268.93 322.462 269.303 322.169 269.754 321.827 270.271 321.585 270.822 321.456 271.584 321.276 272.366 321.194 273.149 321.209L275.031 321.209C275.348 321.209 275.692 321.209 276.066 321.219 276.44 321.229 276.892 321.235 277.425 321.247L277.083 323.033C276.183 323.008 275.416 322.996 274.783 322.995L272.977 322.995C272.516 322.989 272.056 323.018 271.6 323.081 271.296 323.116 271.004 323.218 270.745 323.381 270.542 323.518 270.392 323.718 270.317 323.951 270.235 324.238 270.197 324.536 270.204 324.835 270.2 325.096 270.222 325.357 270.27 325.613 270.308 325.815 270.396 326.005 270.527 326.164 270.677 326.334 270.866 326.464 271.078 326.545 271.384 326.664 271.703 326.747 272.028 326.791Z" fill="#004F5B" transform="translate(-53.568 -53.556)"/><path d="M285.978 324.643C286.684 324.63 287.389 324.704 288.078 324.861 288.609 324.983 289.098 325.245 289.493 325.621 289.884 326.023 290.162 326.521 290.301 327.065 290.489 327.807 290.575 328.571 290.558 329.336L290.558 330.381C290.575 331.146 290.489 331.909 290.301 332.651 290.163 333.195 289.884 333.693 289.493 334.095 289.098 334.471 288.61 334.734 288.078 334.855 286.693 335.146 285.263 335.146 283.878 334.855 283.346 334.734 282.858 334.471 282.463 334.095 282.072 333.693 281.793 333.195 281.655 332.651 281.467 331.909 281.381 331.146 281.398 330.381L281.398 329.336C281.381 328.571 281.467 327.807 281.655 327.065 281.793 326.521 282.072 326.023 282.463 325.621 282.858 325.245 283.347 324.983 283.878 324.861 284.567 324.704 285.272 324.63 285.978 324.643ZM288.524 329.336C288.535 328.799 288.501 328.262 288.424 327.73 288.382 327.395 288.251 327.077 288.044 326.809 287.843 326.584 287.571 326.433 287.274 326.381 286.418 326.241 285.546 326.241 284.69 326.381 284.393 326.433 284.122 326.584 283.921 326.809 283.714 327.077 283.583 327.395 283.541 327.73 283.463 328.262 283.43 328.799 283.441 329.336L283.441 330.381C283.43 330.918 283.463 331.455 283.541 331.986 283.583 332.321 283.714 332.639 283.921 332.907 284.121 333.133 284.393 333.284 284.69 333.335 285.546 333.475 286.418 333.475 287.274 333.335 287.572 333.284 287.843 333.133 288.044 332.907 288.251 332.639 288.382 332.321 288.424 331.986 288.501 331.455 288.535 330.918 288.524 330.381Z" fill="#004F5B" transform="translate(-53.568 -53.556)"/><path d="M294.6 320.652 296.6 320.652 296.6 334.77 294.6 334.77Z" fill="#004F5B" transform="translate(-53.568 -53.556)"/><path d="M305.187 335.073C304.063 335.147 302.942 334.897 301.957 334.352 301.189 333.775 300.778 332.838 300.874 331.882L300.874 324.946 302.874 324.946 302.874 331.482C302.872 331.762 302.891 332.041 302.932 332.318 302.963 332.545 303.063 332.757 303.217 332.927 303.408 333.113 303.649 333.242 303.91 333.297 304.331 333.391 304.761 333.433 305.192 333.421 305.62 333.433 306.048 333.392 306.466 333.297 306.724 333.24 306.961 333.112 307.149 332.927 307.304 332.758 307.404 332.545 307.435 332.318 307.475 332.041 307.494 331.762 307.491 331.482L307.491 324.946 309.491 324.946 309.491 331.882C309.587 332.838 309.176 333.775 308.408 334.352 307.426 334.898 306.308 335.148 305.187 335.073Z" fill="#004F5B" transform="translate(-53.568 -53.556)"/><path d="M313.756 322.629 315.756 322.268 315.756 324.946 319.366 324.946 319.024 326.6 315.756 326.6 315.756 331.159C315.751 331.502 315.773 331.845 315.822 332.185 315.848 332.408 315.937 332.62 316.079 332.794 316.225 332.944 316.415 333.043 316.621 333.078 316.918 333.134 317.219 333.16 317.521 333.154L319.249 333.154 318.907 334.77 317.539 334.77C316.911 334.783 316.283 334.725 315.668 334.599 315.237 334.513 314.836 334.313 314.509 334.019 314.209 333.721 314.004 333.341 313.92 332.927 313.801 332.365 313.747 331.791 313.758 331.217Z" fill="#004F5B" transform="translate(-53.568 -53.556)"/><path d="M325.155 322.039C325.043 322.62 324.482 323 323.901 322.889 323.32 322.777 322.94 322.216 323.052 321.635 323.163 321.054 323.725 320.673 324.305 320.785 324.516 320.826 324.71 320.928 324.861 321.08 325.082 321.348 325.188 321.693 325.155 322.039ZM322.913 324.946 324.913 324.946 324.913 334.77 322.913 334.77Z" fill="#004F5B" transform="translate(-53.568 -53.556)"/><path d="M333.535 324.643C334.241 324.63 334.946 324.704 335.635 324.861 336.166 324.983 336.655 325.245 337.05 325.621 337.441 326.024 337.719 326.521 337.857 327.065 338.045 327.807 338.131 328.571 338.114 329.336L338.114 330.381C338.131 331.146 338.045 331.909 337.857 332.651 337.719 333.195 337.441 333.693 337.05 334.095 336.655 334.471 336.167 334.734 335.635 334.855 334.25 335.146 332.82 335.146 331.435 334.855 330.904 334.734 330.415 334.471 330.02 334.095 329.629 333.693 329.351 333.195 329.213 332.651 329.025 331.909 328.939 331.146 328.956 330.381L328.956 329.336C328.939 328.571 329.025 327.807 329.213 327.065 329.351 326.521 329.629 326.023 330.02 325.621 330.415 325.245 330.904 324.983 331.435 324.861 332.124 324.704 332.829 324.63 333.535 324.643ZM336.081 329.336C336.092 328.799 336.058 328.262 335.981 327.73 335.938 327.395 335.807 327.077 335.601 326.809 335.4 326.584 335.128 326.433 334.831 326.381 333.975 326.241 333.103 326.241 332.247 326.381 331.95 326.433 331.679 326.584 331.478 326.809 331.271 327.077 331.14 327.395 331.098 327.73 331.018 328.261 330.983 328.799 330.993 329.336L330.993 330.381C330.983 330.918 331.018 331.455 331.098 331.986 331.14 332.321 331.271 332.639 331.478 332.907 331.678 333.133 331.949 333.284 332.247 333.335 333.103 333.475 333.975 333.475 334.831 333.335 335.129 333.284 335.4 333.133 335.601 332.907 335.807 332.639 335.938 332.321 335.981 331.986 336.058 331.455 336.092 330.918 336.081 330.381Z" fill="#004F5B" transform="translate(-53.568 -53.556)"/><path d="M342.16 334.77 342.16 327.835C342.072 326.892 342.469 325.968 343.215 325.384 345.302 324.396 347.721 324.396 349.808 325.384 350.554 325.968 350.951 326.892 350.862 327.835L350.862 334.77 348.862 334.77 348.862 328.233C348.865 327.953 348.846 327.674 348.805 327.397 348.774 327.17 348.674 326.958 348.52 326.789 348.326 326.602 348.084 326.474 347.82 326.419 346.954 326.255 346.064 326.255 345.198 326.419 344.934 326.474 344.692 326.602 344.498 326.789 344.344 326.958 344.245 327.17 344.213 327.397 344.172 327.674 344.153 327.953 344.155 328.233L344.155 334.77Z" fill="#004F5B" transform="translate(-53.568 -53.556)"/><path d="M101.1 285.988C101.1 289.593 100.284 292.093 98.651 293.488 97.0183 294.883 94.1963 295.579 90.185 295.578L73.557 295.578C66.281 295.578 61.1303 294.218 58.105 291.499 55.0797 288.78 53.5673 284.869 53.568 279.768L53.568 277.52C53.568 271.876 55.2347 267.779 58.568 265.23 61.9013 262.681 67.1013 261.406 74.168 261.405 77.1329 261.346 80.0943 261.637 82.991 262.272 84.8354 262.655 86.6079 263.326 88.243 264.261L88.243 262.424C88.2795 260.875 88.0905 259.329 87.682 257.835 87.3644 256.696 86.7064 255.681 85.796 254.927 84.7321 254.139 83.4874 253.631 82.176 253.45 80.2701 253.15 78.3421 253.013 76.413 253.041L72.13 253.041C70.5653 253.041 68.9847 253.058 67.388 253.093L62.644 253.193C61.0793 253.229 59.6517 253.246 58.361 253.245L60.5 242.536C62.4027 242.469 64.7827 242.418 67.64 242.382 70.4973 242.346 73.6253 242.329 77.024 242.331 85.3193 242.331 91.405 243.793 95.281 246.718 99.157 249.643 101.095 254.233 101.096 260.488ZM88.247 285.988 88.247 277.725C88.2678 276.676 88.148 275.63 87.891 274.613 87.6528 273.767 87.131 273.029 86.413 272.522 85.4589 271.9 84.3779 271.499 83.249 271.349 81.4619 271.081 79.6557 270.962 77.849 270.993L76.319 270.993C72.4423 270.993 69.8243 271.469 68.465 272.42 67.1057 273.371 66.4257 275.105 66.425 277.62L66.425 279.559C66.279 281.378 66.9739 283.163 68.311 284.404 69.5677 285.46 71.8967 285.987 75.298 285.986Z" fill="#86CAC6" transform="translate(-53.568 -53.556)"/><path d="M141.529 295.575 133.267 295.575C129.726 295.644 126.187 295.336 122.711 294.658 120.28 294.209 118.021 293.096 116.183 291.444 114.497 289.756 113.344 287.61 112.867 285.273 112.195 282.088 111.887 278.837 111.95 275.582L111.95 230.194 125.21 228.052 125.21 242.536 144.282 242.536 142.14 253.45 125.21 253.45 125.21 274.869C125.181 276.543 125.3 278.216 125.566 279.869 125.72 280.976 126.179 282.018 126.892 282.878 127.629 283.642 128.596 284.143 129.645 284.305 131.143 284.571 132.663 284.691 134.184 284.664L143.67 284.664Z" fill="#004F5B" transform="translate(-53.568 -53.556)"/><path d="M175.9 240.9C179.812 240.829 183.717 241.24 187.528 242.124 190.458 242.799 193.164 244.222 195.381 246.254 197.543 248.402 199.077 251.099 199.819 254.054 200.823 258.054 201.286 262.172 201.194 266.295L201.194 271.804C201.286 275.927 200.823 280.043 199.819 284.043 199.077 286.998 197.542 289.695 195.381 291.843 193.164 293.875 190.458 295.298 187.528 295.974 179.827 297.605 171.871 297.605 164.17 295.974 161.239 295.299 158.534 293.876 156.317 291.843 154.155 289.696 152.62 286.999 151.879 284.043 150.874 280.045 150.41 275.931 150.5 271.81L150.5 266.3C150.409 262.176 150.872 258.059 151.877 254.059 152.618 251.103 154.153 248.406 156.315 246.259 158.532 244.226 161.237 242.804 164.168 242.129 168.013 241.24 171.954 240.827 175.9 240.9ZM187.73 266.1C187.772 263.557 187.602 261.015 187.222 258.5 187.018 256.892 186.403 255.363 185.435 254.062 184.51 253 183.252 252.281 181.867 252.024 179.902 251.644 177.901 251.473 175.9 251.513 173.881 251.475 171.864 251.646 169.881 252.024 168.478 252.273 167.202 252.992 166.261 254.062 165.293 255.363 164.678 256.891 164.476 258.5 164.094 261.015 163.923 263.557 163.966 266.1L163.966 272.117C163.922 274.643 164.092 277.169 164.476 279.666 164.684 281.257 165.298 282.768 166.261 284.052 167.201 285.124 168.478 285.844 169.881 286.093 171.864 286.47 173.881 286.641 175.9 286.603 177.901 286.643 179.901 286.472 181.867 286.093 183.253 285.835 184.51 285.116 185.435 284.052 186.398 282.768 187.013 281.257 187.222 279.666 187.604 277.168 187.774 274.643 187.73 272.117Z" fill="#004F5B" transform="translate(-53.568 -53.556)"/><path d="M224.246 295.575 210.986 295.575 210.986 260.69C210.906 257.752 211.391 254.827 212.414 252.072 213.276 249.845 214.72 247.89 216.595 246.411 218.593 244.909 220.888 243.848 223.327 243.3 226.304 242.619 229.352 242.293 232.406 242.331L239.033 242.331C240.87 242.331 242.673 242.364 244.44 242.431L242.3 253.45C240.939 253.383 239.444 253.332 237.813 253.295 236.182 253.258 234.823 253.242 233.734 253.245 232.013 253.186 230.292 253.393 228.634 253.858 227.539 254.184 226.552 254.8 225.779 255.642 225.071 256.481 224.626 257.51 224.5 258.6 224.316 260.003 224.232 261.418 224.246 262.833Z" fill="#004F5B" transform="translate(-53.568 -53.556)"/><path d="M274.426 297.207C270.849 297.255 267.277 296.93 263.767 296.238 261.057 295.727 258.485 294.649 256.22 293.076 254.227 291.634 252.688 289.652 251.783 287.365 250.754 284.575 250.27 281.614 250.355 278.642L250.355 242.536 263.615 242.536 263.615 276.908C263.598 278.274 263.698 279.639 263.915 280.988 264.085 282.072 264.566 283.084 265.3 283.9 266.201 284.787 267.331 285.405 268.564 285.684 270.484 286.144 272.456 286.351 274.429 286.297 276.385 286.353 278.34 286.147 280.242 285.684 281.457 285.397 282.569 284.78 283.455 283.9 284.185 283.084 284.664 282.073 284.833 280.991 285.049 279.642 285.149 278.277 285.133 276.911L285.133 242.536 298.393 242.536 298.393 278.642C298.393 285.512 296.438 290.323 292.528 293.076 288.618 295.829 282.584 297.206 274.426 297.207Z" fill="#004F5B" transform="translate(-53.568 -53.556)"/><path d="M337.663 263.446C340.278 263.61 342.848 264.213 345.263 265.23 347.066 265.999 348.671 267.167 349.955 268.648 351.065 269.987 351.867 271.553 352.302 273.237 352.743 274.935 352.966 276.683 352.964 278.437L352.964 279.966C352.964 285.134 351.162 289.061 347.558 291.747 343.954 294.433 338.344 295.776 330.728 295.776L320.17 295.776C318.096 295.776 315.972 295.759 313.797 295.724 311.622 295.689 309.514 295.639 307.473 295.572L309.512 284.761C312.979 284.828 316.685 284.878 320.631 284.913 324.577 284.948 328.113 284.965 331.238 284.965 334.638 284.965 336.967 284.591 338.224 283.842 339.547 282.973 340.275 281.439 340.112 279.864 340.193 278.599 339.771 277.352 338.939 276.396 338.157 275.579 336.406 275.035 333.686 274.764L322.467 273.845C320.125 273.719 317.826 273.166 315.683 272.213 313.946 271.428 312.385 270.301 311.093 268.899 309.923 267.609 309.053 266.077 308.544 264.412 308.029 262.708 307.771 260.937 307.78 259.157L307.78 257.628C307.78 252.8 309.428 249.043 312.725 246.357 316.022 243.671 321.58 242.328 329.401 242.328 332.325 242.328 335.521 242.345 338.989 242.379 342.457 242.413 346.741 242.464 351.842 242.533L349.802 253.344C346.809 253.277 344.191 253.226 341.948 253.19 339.705 253.154 337.75 253.137 336.083 253.14L328.283 253.14C325.29 253.14 323.216 253.463 322.062 254.109 320.871 254.816 320.195 256.147 320.327 257.526 320.213 258.781 320.64 260.024 321.501 260.944 322.28 261.656 324.098 262.148 326.957 262.421Z" fill="#004F5B" transform="translate(-53.568 -53.556)"/><path d="M146.11 110.771C175.681 76.763 208.22 90.149 224.13 100.601 246.181 115.088 255.292 151.655 241.12 173.445L244.163 171.185C256.618 150.685 260.176 118.675 238.623 90.55 219.165 65.159 171.361 52.381 130.223 96.229 128.332 98.2396 126.562 100.361 124.923 102.581 109.754 139.464 122.851 181.923 156.16 203.853 127.233 182.186 121.661 138.888 146.11 110.771Z" fill="url(#linear-gradient)" transform="translate(-53.568 -53.556)"/><path d="M254.32 161.238C227.649 192.479 190.441 183.776 175.839 171.466 161.279 159.191 145.693 125.915 177.67 101.022 140.442 120.622 142.204 159.451 161.912 182.585 180.523 204.433 227.56 218.459 270.291 175.794 276.717 169.291 281.452 161.313 284.082 152.557 285.939 143.775 286.314 134.743 285.189 125.837 280.421 87.817 249.781 59.168 212.449 54.297 260.561 65.517 279.712 131.5 254.32 161.238Z" fill="url(#linear-gradient-2)" transform="translate(-53.568 -53.556)"/><path d="M130.22 96.229C171.359 52.381 219.163 65.159 238.62 90.55 260.02 118.471 256.66 150.216 244.42 170.73 248.033 167.913 251.348 164.732 254.312 161.238 279.71 131.5 260.559 65.517 212.447 54.3 205.04 53.3326 197.541 53.3121 190.129 54.239 172.452 56.3959 155.866 63.9391 142.622 75.845 135.051 83.5314 129.04 92.6116 124.922 102.584 126.561 100.363 128.33 98.2411 130.22 96.229Z" fill="url(#linear-gradient-3)" transform="translate(-53.568 -53.556)"/><path d="M270.289 175.794C227.558 218.459 180.521 204.433 161.91 182.585 142.202 159.451 140.44 120.618 177.668 101.021 177.545 101.121 177.429 101.214 177.308 101.31 177.491 101.191 177.665 101.065 177.85 100.949 196.983 88.967 222.85 95.305 237.95 114.839 234.375 109.189 229.669 104.341 224.128 100.6 208.218 90.148 175.679 76.762 146.108 110.77 139.525 118.349 134.854 127.395 132.486 137.15 127.898 156.329 132.231 176.555 144.272 192.172 151.651 201.665 161.739 208.289 172.878 212.611 182.263 216.101 192.216 217.809 202.227 217.648 240.814 217.606 274.375 194.503 284.082 152.556 281.294 159.648 275.685 170.407 270.289 175.794Z" fill="url(#linear-gradient-4)" transform="translate(-53.568 -53.556)"/></svg>