<svg viewBox="0 0 288 265.18" xmlns="http://www.w3.org/2000/svg" xmlns:xlink="http://www.w3.org/1999/xlink" id="Layer_1" overflow="hidden"><defs></defs><g><path d="M111.36 78.1C110.98 78.1 110.59 78.02 110.22 77.86L59.72 55.82C58.68 55.37 58.01 54.34 58.01 53.2 58.01 52.06 58.68 51.04 59.72 50.58L110.22 28.54C111.66 27.91 113.35 28.57 113.98 30.01 114.61 31.45 113.95 33.14 112.51 33.77L68 53.19 112.51 72.61C113.95 73.24 114.61 74.92 113.98 76.37 113.51 77.44 112.46 78.08 111.36 78.08Z" fill="#B884CB"/><path d="M176.67 78.1C175.57 78.1 174.52 77.46 174.05 76.39 173.42 74.95 174.08 73.26 175.52 72.63L220.03 53.21 175.52 33.79C174.08 33.16 173.42 31.48 174.05 30.03 174.68 28.58 176.36 27.93 177.81 28.56L228.31 50.6C229.35 51.05 230.02 52.08 230.02 53.22 230.02 54.36 229.35 55.38 228.31 55.84L177.81 77.88C177.44 78.04 177.05 78.12 176.67 78.12Z" fill="#B884CB"/><path d="M144.01 148.03C142.43 148.03 141.16 146.75 141.16 145.18L141.16 89.45C141.16 87.87 142.44 86.6 144.01 86.6 145.58 86.6 146.86 87.88 146.86 89.45L146.86 145.18C146.86 146.76 145.58 148.03 144.01 148.03Z" fill="#B884CB"/><path d="M144.01 166.04C143.62 166.04 143.23 165.96 142.87 165.8L59.71 129.52C58.67 129.07 58 128.04 58 126.9L58 69.82C58 68.24 59.28 66.97 60.85 66.97 62.42 66.97 63.7 68.25 63.7 69.82L63.7 125.03 144 160.06 224.3 125.03 224.3 69.82C224.3 68.24 225.58 66.97 227.15 66.97 228.72 66.97 230 68.25 230 69.82L230 126.9C230 128.03 229.33 129.06 228.29 129.52L145.13 165.8C144.77 165.96 144.38 166.04 143.99 166.04Z" fill="#B884CB"/><path d="M144.01 68.88C143 68.88 142.07 68.35 141.55 67.48L126.58 42.2C125.78 40.84 126.23 39.09 127.58 38.29 128.93 37.49 130.69 37.94 131.49 39.29L143.82 60.13 173.97 1.55C174.69 0.15 176.41-0.4 177.81 0.32 179.21 1.04 179.76 2.76 179.04 4.16L146.55 67.34C146.08 68.26 145.14 68.86 144.1 68.89 144.07 68.89 144.04 68.89 144.01 68.89Z" fill="#B884CB"/></g><g><path d="M20.51 206.65C29.15 206.62 37.48 208.26 39.82 217.27 40.96 220.73 40.99 227.15 40.93 231.59 41 246.79 35.62 252.16 20.51 252.09 5.36 252.17-0.05 246.85 0.02 231.59-0.03 227.13 0 220.74 1.13 217.27 3.5 208.22 11.82 206.62 20.52 206.65ZM30.06 226.98C29.94 223.08 30.11 219.92 28.21 217.27 26.25 215.15 23.7 215.34 20.51 215.21 17.33 215.34 14.68 215.15 12.73 217.27 10.82 219.93 11 223.08 10.88 226.98 10.9 230 10.77 235.5 11.29 237.93 12.07 243.17 15.75 243.51 20.51 243.53 23.69 243.4 26.25 243.59 28.21 241.47 30.12 238.81 29.94 235.75 30.06 231.84 30.06 231.84 30.06 226.98 30.06 226.98Z" fill="#FFFFFF"/><path d="M87.69 231.35C87.69 239.9 86.37 248.36 77.56 250.94 72.2 252.45 62.62 253.16 57.88 249.13L57.88 265.18 47.18 265.18 47.18 226.98C47.18 223.14 47.56 219.93 48.33 217.35 50.82 208.42 59.01 206.62 67.68 206.65 85.62 206.48 88.03 215.24 87.69 231.35ZM67.36 243.54C70.56 243.4 73.14 243.64 75.06 241.4 76.95 238.65 76.69 235.52 76.83 231.52 76.83 231.52 76.83 227.32 76.83 227.32 76.7 223.28 76.9 220.06 74.98 217.32 73.07 215.16 70.49 215.35 67.36 215.22 58.31 215 58.04 218.85 57.89 226.99 57.89 226.99 57.89 232.83 57.89 232.83 57.98 236.25 57.98 239.12 59.87 241.43 61.81 243.44 64.29 243.44 67.36 243.53Z" fill="#FFFFFF"/><path d="M103.83 232.99C103.76 240.7 105.23 242.75 113.13 242.7 118.3 242.7 122.8 242.74 128.85 242.54L127.2 250.77C122.04 250.98 117.72 250.93 112.63 250.93 98.72 250.97 92.97 245.23 93.12 231.58 93.01 222.15 92.84 211.38 103.29 207.95 107.85 206.26 117.31 206.17 121.98 207.83 128.99 210.01 131.81 215.63 131.74 222.61 131.64 226.23 132.18 231.52 128.28 232.65 127 233.31 105.75 232.86 103.83 232.98ZM112.72 214.71C104.68 214.55 103.83 217.82 103.83 225.17L121.53 225.17C121.72 217.94 120.71 214.65 112.72 214.71Z" fill="#FFFFFF"/><path d="M139.23 250.77 139.23 221.63C139.27 216.87 140.29 212.82 143.92 210.06 148.08 207.13 153.15 206.73 158.82 206.64 165.63 206.64 170.58 207.78 173.68 210.06 176.78 212.34 178.33 216.19 178.33 221.63L178.33 250.77 167.63 250.77 167.63 222.94C167.56 220.77 167.63 218.85 166.27 217.3 164.36 215.51 161.94 215.54 158.82 215.45 155.67 215.54 153.29 215.53 151.33 217.3 149.91 218.83 150.01 220.76 149.93 222.94 149.93 222.94 149.93 250.77 149.93 250.77L139.23 250.77Z" fill="#FFFFFF"/><path d="M268.57 243.04C268.5 249.29 265.93 250.67 259.76 250.78 259.76 250.78 246.34 250.78 246.34 250.78 240.47 250.78 236.31 249.68 233.87 247.49 230.85 244.86 230.01 240.77 230.21 236.21 230.34 225.89 236.68 223.34 246.84 223.2 251.19 223.2 255.13 223.73 258.2 225.51 258.5 217.81 256.12 216.45 248.65 216.45 243.99 216.4 238.73 216.58 234.08 216.61L235.81 207.97C248.68 208.05 268.69 204.55 268.58 222.46 268.58 222.46 268.58 243.04 268.58 243.04ZM258.2 243.04C257.94 233.55 260.3 230.73 248.57 230.94 243.43 231.1 240.69 231.3 240.58 236.29 240.58 236.29 240.58 237.85 240.58 237.85 240.58 239.61 241.09 240.91 242.1 241.76 243.11 242.61 244.99 243.04 247.74 243.04L258.2 243.04Z" fill="#B884CB"/><path d="M277.3 189.6 288 189.6 288 250.77 277.3 250.77 277.3 189.6Z" fill="#B884CB"/><path d="M221.25 189.6 205.59 237.6 198.11 214.71 186.61 214.71 199.17 250.77 211.6 250.77 232.69 189.6 221.25 189.6Z" fill="#B884CB"/></g></svg>